<?xml version="1.0" encoding="UTF-8" standalone="no" ?>
<!DOCTYPE svg PUBLIC "-//W3C//DTD SVG 1.1//EN" "http://www.w3.org/Graphics/SVG/1.1/DTD/svg11.dtd">
<svg xmlns="http://www.w3.org/2000/svg" xmlns:xlink="http://www.w3.org/1999/xlink" version="1.1" width="60" height="60" viewBox="0 0 900 900" xml:space="preserve">
<desc>Created with Fabric.js 5.2.4</desc>
<defs>
</defs>
<rect x="0" y="0" width="100%" height="100%" fill="transparent"></rect>
<g transform="matrix(1 0 0 1 450 450)" id="d9f5da47-21e5-492a-8331-7a6fe288ea83"  >
<rect style="stroke: none; stroke-width: 1; stroke-dasharray: none; stroke-linecap: butt; stroke-dashoffset: 0; stroke-linejoin: miter; stroke-miterlimit: 4; fill: rgb(255,255,255); fill-rule: nonzero; opacity: 1; visibility: hidden;" vector-effect="non-scaling-stroke"  x="-450" y="-450" rx="0" ry="0" width="900" height="900" />
</g>
<g transform="matrix(Infinity NaN NaN Infinity 0 0)" id="09542f3e-766e-400f-8aef-57e8f433bc52"  >
</g>
<g transform="matrix(0.83 0 0 0.83 429.35 427.6)"  >
<g style="" vector-effect="non-scaling-stroke"   >
		<g transform="matrix(1 0 0 1 340.61 -369.3)"  >
<path style="stroke: none; stroke-width: 1; stroke-dasharray: none; stroke-linecap: butt; stroke-dashoffset: 0; stroke-linejoin: miter; stroke-miterlimit: 4; fill: rgb(255,255,255); fill-rule: nonzero; opacity: 1;" vector-effect="non-scaling-stroke"  transform=" translate(-1310.11, -591.83)" d="M 1325.8 601.83 L 1309.35 618.2800000000001 C 1305.3 604.8600000000001 1300.49 591.45 1294.4099999999999 578.7900000000001 L 1307.57 565.3700000000001 C 1314.66 577.02 1320.48 589.18 1325.8 601.83 z" stroke-linecap="round" />
</g>
		<g transform="matrix(1 0 0 1 352.88 -337.27)"  >
<path style="stroke: none; stroke-width: 1; stroke-dasharray: none; stroke-linecap: butt; stroke-dashoffset: 0; stroke-linejoin: miter; stroke-miterlimit: 4; fill: rgb(255,255,255); fill-rule: nonzero; opacity: 1;" vector-effect="non-scaling-stroke"  transform=" translate(-1322.38, -623.86)" d="M 1333.39 621.07 L 1314.66 639.5500000000001 C 1313.65 634.7400000000001 1312.64 629.9300000000001 1311.3700000000001 625.1200000000001 L 1328.3300000000002 608.1600000000001 C 1330.1 612.46 1331.87 616.77 1333.39 621.07 z" stroke-linecap="round" />
</g>
		<g transform="matrix(1 0 0 1 355.47 -235.75)"  >
<path style="stroke: none; stroke-width: 1; stroke-dasharray: none; stroke-linecap: butt; stroke-dashoffset: 0; stroke-linejoin: miter; stroke-miterlimit: 4; fill: rgb(255,255,255); fill-rule: nonzero; opacity: 1;" vector-effect="non-scaling-stroke"  transform=" translate(-1324.97, -725.37)" d="M 1328.58 823.08 L 1300.23 794.48 C 1320.99 747.14 1325.29 695.76 1316.18 646.9 L 1335.67 627.66 C 1355.67 689.93 1355.16 759.03 1328.58 823.08 z" stroke-linecap="round" />
</g>
		<g transform="matrix(1 0 0 1 -169.09 -325.62)"  >
<path style="stroke: none; stroke-width: 1; stroke-dasharray: none; stroke-linecap: butt; stroke-dashoffset: 0; stroke-linejoin: miter; stroke-miterlimit: 4; fill: rgb(255,255,255); fill-rule: nonzero; opacity: 1;" vector-effect="non-scaling-stroke"  transform=" translate(-800.41, -635.5)" d="M 811.42 636.77 C 810.41 641.8299999999999 809.65 646.64 808.64 651.6999999999999 L 789.4 632.2099999999999 C 790.67 627.91 792.4399999999999 623.5999999999999 793.9599999999999 619.3 L 811.42 636.77 z" stroke-linecap="round" />
</g>
		<g transform="matrix(1 0 0 1 -166.96 -225.76)"  >
<path style="stroke: none; stroke-width: 1; stroke-dasharray: none; stroke-linecap: butt; stroke-dashoffset: 0; stroke-linejoin: miter; stroke-miterlimit: 4; fill: rgb(255,255,255); fill-rule: nonzero; opacity: 1;" vector-effect="non-scaling-stroke"  transform=" translate(-802.54, -735.37)" d="M 828.64 800.55 C 819.78 810.42 810.67 820.8 801.3 831.43 C 772.6999999999999 768.9 769.91 701.06 787.12 639.3 L 807.62 659.55 C 801.3 706.63 807.12 755.49 828.64 800.55 z" stroke-linecap="round" />
</g>
		<g transform="matrix(1 0 0 1 -158.07 -358.53)"  >
<path style="stroke: none; stroke-width: 1; stroke-dasharray: none; stroke-linecap: butt; stroke-dashoffset: 0; stroke-linejoin: miter; stroke-miterlimit: 4; fill: rgb(255,255,255); fill-rule: nonzero; opacity: 1;" vector-effect="non-scaling-stroke"  transform=" translate(-811.42, -602.59)" d="M 826.61 589.18 C 821.04 602.3399999999999 816.74 615.76 813.45 629.68 L 796.24 612.4699999999999 C 801.05 599.81 806.62 587.41 813.2 575.5099999999999 L 826.61 589.18 z" stroke-linecap="round" />
</g>
		<g transform="matrix(1 0 0 1 79.11 -517.64)"  >
<path style="stroke: none; stroke-width: 1; stroke-dasharray: none; stroke-linecap: butt; stroke-dashoffset: 0; stroke-linejoin: miter; stroke-miterlimit: 4; fill: rgb(255,255,255); fill-rule: nonzero; opacity: 1;" vector-effect="non-scaling-stroke"  transform=" translate(-1048.61, -443.48)" d="M 1063.04 432.48 C 1098.99 432.48 1132.1499999999999 439.31 1161.76 451.97 C 1163.53 449.95000000000005 1165.56 448.17 1167.33 446.40000000000003 C 1135.6899999999998 434.00000000000006 1100.5 427.16 1063.04 427.41 C 1013.68 427.16 968.62 438.8 929.89 459.56 L 947.1 459.56 C 981.03 442.36 1020.01 432.48 1063.04 432.48 z" stroke-linecap="round" />
</g>
		<g transform="matrix(1 0 0 1 108.5 -381.22)"  >
<path style="stroke: none; stroke-width: 1; stroke-dasharray: none; stroke-linecap: butt; stroke-dashoffset: 0; stroke-linejoin: miter; stroke-miterlimit: 4; fill: rgb(255,255,255); fill-rule: nonzero; opacity: 1;" vector-effect="non-scaling-stroke"  transform=" translate(-1078, -579.9)" d="M 1228.98 481.03 C 1253.51 481.03 1275.57 481.03 1299.42 481.03 C 1260.3600000000001 520.22 1176.89 603.8199999999999 1139.92 640.91 C 1149.3000000000002 651.02 1158.26 660.6899999999999 1167.69 670.87 C 1229.3400000000001 608.39 1336.15 500.77 1396.91 439.20000000000005 C 1336.67 439.20000000000005 1275.3300000000002 439.20000000000005 1209.75 439.20000000000005 C 1153.57 496.33000000000004 1049.75 601.1500000000001 992.63 659.24 C 948.06 614.35 904.02 569.99 860.7 526.37 C 885.69 526.37 912.38 526.37 943.52 526.37 C 966.68 550.3100000000001 991.8199999999999 576.32 1016.35 601.6800000000001 C 1025.88 592.08 1035.1200000000001 582.7800000000001 1043.8600000000001 573.98 C 1014.6400000000001 544.4 985.1700000000001 514.57 955.9000000000001 484.93 C 889.7 484.93 823.9100000000001 484.93 759.0800000000002 484.93 C 835.9600000000002 562.71 913.1000000000001 640.75 992.0300000000002 720.61 C 1056.92 654.81 1166.45 544.41 1228.98 481.03 z" stroke-linecap="round" />
</g>
		<g transform="matrix(1 0 0 1 -20.09 -53.13)"  >
<path style="stroke: none; stroke-width: 1; stroke-dasharray: none; stroke-linecap: butt; stroke-dashoffset: 0; stroke-linejoin: miter; stroke-miterlimit: 4; fill: rgb(255,255,255); fill-rule: nonzero; opacity: 1;" vector-effect="non-scaling-stroke"  transform=" translate(-949.4, -907.99)" d="M 1099.75 768.9 C 1089.62 778.77 1080.26 787.89 1071.4 796.74 C 1101.52 827.12 1131.39 857.49 1161.77 887.87 L 1356.69 887.87 C 1343.53 874.45 1330.3600000000001 861.04 1316.95 847.62 C 1307.3300000000002 837.75 1297.71 828.13 1288.0900000000001 818.26 C 1249.8700000000001 779.78 1211.39 740.8 1172.91 701.56 C 1156.96 685.6099999999999 1141.01 669.41 1125.0700000000002 653.2099999999999 L 1120.7700000000002 657.5099999999999 C 1084.31 695.49 994.95 798.02 907.87 898 C 897.75 909.64 887.62 921.04 877.75 932.43 C 803.33 1017.2299999999999 735.49 1094.69 708.91 1121.52 L 638.54 1121.52 C 660.31 1099.75 754.48 989.64 838.52 891.92 C 847.89 880.53 857.51 869.39 866.87 858.76 C 915.47 802.06 956.99 754.21 972.94 737.25 C 974.21 735.98 975.22 734.97 975.98 734.21 C 966.11 724.08 956.99 714.72 948.14 705.61 L 944.85 708.9 C 925.36 729.4 887.13 772.18 841.32 824.0799999999999 C 832.46 834.2099999999999 823.35 844.8399999999999 813.73 855.7199999999999 C 709.1800000000001 975.1999999999999 580.08 1124.55 542.11 1162.78 L 727.9100000000001 1162.78 C 754.2400000000001 1135.95 830.94 1048.11 910.6800000000001 956.22 C 918.0200000000001 960.78 925.61 965.08 933.46 968.62 C 1042.06 1021.78 1183.81 1003.3 1268.8700000000001 913.1800000000001 L 1194.95 913.1800000000001 C 1126.8600000000001 953.4300000000001 1040.28 959.0000000000001 966.62 930.3900000000001 C 958.52 927.3500000000001 950.42 923.8100000000001 942.57 919.5100000000001 C 1022.0600000000001 828.3800000000001 1098.5 740.7900000000001 1125.3400000000001 713.46 C 1169.64 758.27 1213.69 802.82 1257.23 846.86 L 1175.72 846.86 C 1151.13 821.56 1125.06 794.98 1099.75 768.9 z" stroke-linecap="round" />
</g>
		<g transform="matrix(1 0 0 1 -403.35 503.68)"  >
<path style="stroke: none; stroke-width: 1; stroke-dasharray: none; stroke-linecap: butt; stroke-dashoffset: 0; stroke-linejoin: miter; stroke-miterlimit: 4; fill: rgb(255,255,255); fill-rule: nonzero; opacity: 1;" vector-effect="non-scaling-stroke"  transform=" translate(-566.14, -1464.81)" d="M 561.95 1494.16 L 561.95 1435.45 L 570.34 1435.45 L 570.34 1494.16 L 561.95 1494.16 z" stroke-linecap="round" />
</g>
		<g transform="matrix(1 0 0 1 -322.76 503.68)"  >
<path style="stroke: none; stroke-width: 1; stroke-dasharray: none; stroke-linecap: butt; stroke-dashoffset: 0; stroke-linejoin: miter; stroke-miterlimit: 4; fill: rgb(255,255,255); fill-rule: nonzero; opacity: 1;" vector-effect="non-scaling-stroke"  transform=" translate(-646.74, -1464.81)" d="M 621.49 1494.16 L 621.49 1435.45 L 628.37 1435.45 L 667.2 1483.68 L 663.59 1483.68 L 663.59 1435.45 L 671.98 1435.45 L 671.98 1494.16 L 665.1 1494.16 L 626.27 1445.94 L 629.88 1445.94 L 629.88 1494.16 L 621.49 1494.16 z" stroke-linecap="round" />
</g>
		<g transform="matrix(1 0 0 1 -218.14 503.69)"  >
<path style="stroke: none; stroke-width: 1; stroke-dasharray: none; stroke-linecap: butt; stroke-dashoffset: 0; stroke-linejoin: miter; stroke-miterlimit: 4; fill: rgb(255,255,255); fill-rule: nonzero; opacity: 1;" vector-effect="non-scaling-stroke"  transform=" translate(-751.36, -1464.81)" d="M 723.14 1494.16 L 723.14 1435.45 L 747.88 1435.45 C 754.14 1435.45 759.66 1436.68 764.4399999999999 1439.14 C 769.2199999999999 1441.6000000000001 772.9399999999999 1445.0400000000002 775.5999999999999 1449.46 C 778.2499999999999 1453.88 779.5799999999999 1458.99 779.5799999999999 1464.81 C 779.5799999999999 1470.6299999999999 778.2499999999999 1475.74 775.5999999999999 1480.1599999999999 C 772.9399999999999 1484.58 769.2299999999999 1488.0099999999998 764.4399999999999 1490.4799999999998 C 759.66 1492.9399999999998 754.14 1494.1699999999998 747.88 1494.1699999999998 L 723.14 1494.1699999999998 z M 731.53 1486.87 L 747.38 1486.87 C 752.25 1486.87 756.45 1485.9499999999998 760 1484.1 C 763.55 1482.26 766.3 1479.6699999999998 768.26 1476.35 C 770.22 1473.02 771.1899999999999 1469.1799999999998 771.1899999999999 1464.82 C 771.1899999999999 1460.3999999999999 770.2099999999999 1456.55 768.26 1453.25 C 766.3 1449.95 763.55 1447.38 760 1445.53 C 756.45 1443.69 752.24 1442.76 747.38 1442.76 L 731.53 1442.76 L 731.53 1486.87 z" stroke-linecap="round" />
</g>
		<g transform="matrix(1 0 0 1 -119.21 504.03)"  >
<path style="stroke: none; stroke-width: 1; stroke-dasharray: none; stroke-linecap: butt; stroke-dashoffset: 0; stroke-linejoin: miter; stroke-miterlimit: 4; fill: rgb(255,255,255); fill-rule: nonzero; opacity: 1;" vector-effect="non-scaling-stroke"  transform=" translate(-850.29, -1465.15)" d="M 850.28 1494.84 C 842.56 1494.84 836.5 1492.6299999999999 832.0799999999999 1488.22 C 827.6599999999999 1483.8100000000002 825.4599999999999 1477.34 825.4599999999999 1468.8500000000001 L 825.4599999999999 1435.47 L 833.8499999999999 1435.47 L 833.8499999999999 1468.51 C 833.8499999999999 1475.05 835.29 1479.83 838.17 1482.85 C 841.05 1485.87 845.12 1487.3799999999999 850.37 1487.3799999999999 C 855.68 1487.3799999999999 859.78 1485.87 862.66 1482.85 C 865.54 1479.83 866.98 1475.05 866.98 1468.51 L 866.98 1435.47 L 875.12 1435.47 L 875.12 1468.8500000000001 C 875.12 1477.3500000000001 872.92 1483.8100000000002 868.53 1488.22 C 864.14 1492.6299999999999 858.05 1494.84 850.28 1494.84 z" stroke-linecap="round" />
</g>
		<g transform="matrix(1 0 0 1 -26.42 503.69)"  >
<path style="stroke: none; stroke-width: 1; stroke-dasharray: none; stroke-linecap: butt; stroke-dashoffset: 0; stroke-linejoin: miter; stroke-miterlimit: 4; fill: rgb(255,255,255); fill-rule: nonzero; opacity: 1;" vector-effect="non-scaling-stroke"  transform=" translate(-943.08, -1464.82)" d="M 942.96 1494.84 C 938.48 1494.84 934.21 1494.1599999999999 930.13 1492.79 C 926.05 1491.42 922.83 1489.6399999999999 920.48 1487.46 L 923.58 1480.92 C 925.82 1482.88 928.6700000000001 1484.5 932.13 1485.78 C 935.59 1487.07 939.2 1487.71 942.95 1487.71 C 946.36 1487.71 949.13 1487.32 951.25 1486.53 C 953.37 1485.75 954.94 1484.67 955.95 1483.3 C 956.96 1481.93 957.46 1480.3799999999999 957.46 1478.6499999999999 C 957.46 1476.6399999999999 956.8000000000001 1475.0199999999998 955.49 1473.78 C 954.1800000000001 1472.55 952.47 1471.56 950.37 1470.81 C 948.27 1470.06 945.97 1469.3999999999999 943.45 1468.84 C 940.9300000000001 1468.28 938.4000000000001 1467.62 935.86 1466.87 C 933.32 1466.12 931 1465.1499999999999 928.9 1463.9799999999998 C 926.8 1462.7999999999997 925.11 1461.2199999999998 923.8299999999999 1459.2399999999998 C 922.54 1457.2599999999998 921.9 1454.6999999999998 921.9 1451.5599999999997 C 921.9 1448.5399999999997 922.6999999999999 1445.7599999999998 924.29 1443.2199999999998 C 925.88 1440.6799999999998 928.3399999999999 1438.6399999999999 931.67 1437.1 C 935 1435.56 939.2299999999999 1434.79 944.38 1434.79 C 947.79 1434.79 951.17 1435.24 954.53 1436.1299999999999 C 957.89 1437.03 960.79 1438.31 963.25 1439.9899999999998 L 960.48 1446.6999999999998 C 957.96 1445.0199999999998 955.3100000000001 1443.8099999999997 952.51 1443.0499999999997 C 949.71 1442.2999999999997 947 1441.9199999999996 944.38 1441.9199999999996 C 941.08 1441.9199999999996 938.37 1442.3399999999997 936.24 1443.1799999999996 C 934.12 1444.0199999999995 932.5600000000001 1445.1399999999996 931.59 1446.5299999999995 C 930.61 1447.9299999999996 930.12 1449.4999999999995 930.12 1451.2299999999996 C 930.12 1453.2999999999995 930.78 1454.9499999999996 932.09 1456.1799999999996 C 933.4 1457.4099999999996 935.11 1458.3899999999996 937.21 1459.1099999999997 C 939.3100000000001 1459.8399999999997 941.61 1460.4999999999998 944.13 1461.0799999999997 C 946.65 1461.6599999999996 949.17 1462.3299999999997 951.72 1463.0499999999997 C 954.26 1463.7799999999997 956.59 1464.7299999999998 958.6800000000001 1465.8999999999996 C 960.7800000000001 1467.0799999999997 962.47 1468.6399999999996 963.7500000000001 1470.5999999999997 C 965.0400000000001 1472.5599999999997 965.6800000000001 1475.0699999999997 965.6800000000001 1478.1499999999996 C 965.6800000000001 1481.1099999999997 964.8700000000001 1483.8699999999997 963.2500000000001 1486.4099999999996 C 961.6300000000001 1488.9499999999996 959.1300000000001 1490.9999999999995 955.7500000000001 1492.5399999999997 C 952.36 1494.07 948.1 1494.84 942.96 1494.84 z" stroke-linecap="round" />
</g>
		<g transform="matrix(1 0 0 1 56.95 503.68)"  >
<path style="stroke: none; stroke-width: 1; stroke-dasharray: none; stroke-linecap: butt; stroke-dashoffset: 0; stroke-linejoin: miter; stroke-miterlimit: 4; fill: rgb(255,255,255); fill-rule: nonzero; opacity: 1;" vector-effect="non-scaling-stroke"  transform=" translate(-1026.45, -1464.81)" d="M 1022.29 1494.16 L 1022.29 1442.75 L 1002.17 1442.75 L 1002.17 1435.45 L 1050.73 1435.45 L 1050.73 1442.75 L 1030.6 1442.75 L 1030.6 1494.16 L 1022.29 1494.16 z" stroke-linecap="round" />
</g>
		<g transform="matrix(1 0 0 1 148.11 503.68)"  >
<path style="stroke: none; stroke-width: 1; stroke-dasharray: none; stroke-linecap: butt; stroke-dashoffset: 0; stroke-linejoin: miter; stroke-miterlimit: 4; fill: rgb(255,255,255); fill-rule: nonzero; opacity: 1;" vector-effect="non-scaling-stroke"  transform=" translate(-1117.61, -1464.81)" d="M 1093.41 1494.16 L 1093.41 1435.45 L 1116.3100000000002 1435.45 C 1121.4500000000003 1435.45 1125.8400000000001 1436.26 1129.4800000000002 1437.88 C 1133.1100000000004 1439.5 1135.9100000000003 1441.8500000000001 1137.8700000000003 1444.93 C 1139.8300000000004 1448.01 1140.8100000000004 1451.67 1140.8100000000004 1455.92 C 1140.8100000000004 1460.17 1139.8300000000004 1463.8100000000002 1137.8700000000003 1466.8600000000001 C 1135.9100000000003 1469.91 1133.1200000000003 1472.2400000000002 1129.4800000000002 1473.8600000000001 C 1125.8500000000001 1475.48 1121.4600000000003 1476.2900000000002 1116.3100000000002 1476.2900000000002 L 1098.0200000000002 1476.2900000000002 L 1101.7900000000002 1472.4300000000003 L 1101.7900000000002 1494.1500000000003 L 1093.41 1494.1500000000003 z M 1101.79 1473.28 L 1098.02 1469.17 L 1116.05 1469.17 C 1121.4199999999998 1469.17 1125.48 1468.01 1128.25 1465.69 C 1131.02 1463.3700000000001 1132.4 1460.1100000000001 1132.4 1455.92 C 1132.4 1451.73 1131.01 1448.48 1128.25 1446.19 C 1125.48 1443.9 1121.42 1442.75 1116.05 1442.75 L 1098.02 1442.75 L 1101.79 1438.56 L 1101.79 1473.28 z M 1132.66 1494.16 L 1117.73 1472.8600000000001 L 1126.7 1472.8600000000001 L 1141.8 1494.16 L 1132.66 1494.16 z" stroke-linecap="round" />
</g>
		<g transform="matrix(1 0 0 1 222.63 503.68)"  >
<path style="stroke: none; stroke-width: 1; stroke-dasharray: none; stroke-linecap: butt; stroke-dashoffset: 0; stroke-linejoin: miter; stroke-miterlimit: 4; fill: rgb(255,255,255); fill-rule: nonzero; opacity: 1;" vector-effect="non-scaling-stroke"  transform=" translate(-1192.13, -1464.81)" d="M 1187.93 1494.16 L 1187.93 1435.45 L 1196.3200000000002 1435.45 L 1196.3200000000002 1494.16 L 1187.93 1494.16 z" stroke-linecap="round" />
</g>
		<g transform="matrix(1 0 0 1 299.28 503.69)"  >
<path style="stroke: none; stroke-width: 1; stroke-dasharray: none; stroke-linecap: butt; stroke-dashoffset: 0; stroke-linejoin: miter; stroke-miterlimit: 4; fill: rgb(255,255,255); fill-rule: nonzero; opacity: 1;" vector-effect="non-scaling-stroke"  transform=" translate(-1268.78, -1464.81)" d="M 1255.86 1486.87 L 1290.08 1486.87 L 1290.08 1494.1699999999998 L 1247.48 1494.1699999999998 L 1247.48 1435.4599999999998 L 1288.91 1435.4599999999998 L 1288.91 1442.7599999999998 L 1255.8700000000001 1442.7599999999998 L 1255.8700000000001 1486.87 z M 1255.1 1460.79 L 1285.29 1460.79 L 1285.29 1467.92 L 1255.1 1467.92 L 1255.1 1460.79 z" stroke-linecap="round" />
</g>
		<g transform="matrix(1 0 0 1 384.95 503.69)"  >
<path style="stroke: none; stroke-width: 1; stroke-dasharray: none; stroke-linecap: butt; stroke-dashoffset: 0; stroke-linejoin: miter; stroke-miterlimit: 4; fill: rgb(255,255,255); fill-rule: nonzero; opacity: 1;" vector-effect="non-scaling-stroke"  transform=" translate(-1354.44, -1464.82)" d="M 1354.32 1494.84 C 1349.84 1494.84 1345.57 1494.1599999999999 1341.49 1492.79 C 1337.41 1491.42 1334.19 1489.6399999999999 1331.84 1487.46 L 1334.9499999999998 1480.92 C 1337.1899999999998 1482.88 1340.0399999999997 1484.5 1343.4999999999998 1485.78 C 1346.9599999999998 1487.07 1350.5699999999997 1487.71 1354.3199999999997 1487.71 C 1357.7299999999998 1487.71 1360.4899999999998 1487.32 1362.6199999999997 1486.53 C 1364.7399999999996 1485.75 1366.3099999999997 1484.67 1367.3099999999997 1483.3 C 1368.3199999999997 1481.93 1368.8199999999997 1480.3799999999999 1368.8199999999997 1478.6499999999999 C 1368.8199999999997 1476.6399999999999 1368.1599999999996 1475.0199999999998 1366.8499999999997 1473.78 C 1365.5399999999997 1472.55 1363.8299999999997 1471.56 1361.7399999999998 1470.81 C 1359.6399999999999 1470.06 1357.3299999999997 1469.3999999999999 1354.8199999999997 1468.84 C 1352.2999999999997 1468.28 1349.7699999999998 1467.62 1347.2299999999998 1466.87 C 1344.6899999999998 1466.12 1342.37 1465.1499999999999 1340.2699999999998 1463.9799999999998 C 1338.1699999999998 1462.7999999999997 1336.4799999999998 1461.2199999999998 1335.1999999999998 1459.2399999999998 C 1333.9099999999999 1457.2599999999998 1333.2699999999998 1454.6999999999998 1333.2699999999998 1451.5599999999997 C 1333.2699999999998 1448.5399999999997 1334.0699999999997 1445.7599999999998 1335.6599999999999 1443.2199999999998 C 1337.2499999999998 1440.6799999999998 1339.7099999999998 1438.6399999999999 1343.04 1437.1 C 1346.36 1435.56 1350.6 1434.79 1355.74 1434.79 C 1359.15 1434.79 1362.53 1435.24 1365.89 1436.1299999999999 C 1369.24 1437.03 1372.15 1438.31 1374.6100000000001 1439.9899999999998 L 1371.8400000000001 1446.6999999999998 C 1369.3200000000002 1445.0199999999998 1366.67 1443.8099999999997 1363.88 1443.0499999999997 C 1361.0800000000002 1442.2999999999997 1358.3700000000001 1441.9199999999996 1355.74 1441.9199999999996 C 1352.44 1441.9199999999996 1349.73 1442.3399999999997 1347.61 1443.1799999999996 C 1345.49 1444.0199999999995 1343.9299999999998 1445.1399999999996 1342.9499999999998 1446.5299999999995 C 1341.9699999999998 1447.9299999999996 1341.4899999999998 1449.4999999999995 1341.4899999999998 1451.2299999999996 C 1341.4899999999998 1453.2999999999995 1342.1499999999999 1454.9499999999996 1343.4599999999998 1456.1799999999996 C 1344.7799999999997 1457.4099999999996 1346.4799999999998 1458.3899999999996 1348.5799999999997 1459.1099999999997 C 1350.6799999999996 1459.8399999999997 1352.9799999999998 1460.4999999999998 1355.4999999999998 1461.0799999999997 C 1358.0099999999998 1461.6699999999996 1360.5399999999997 1462.3299999999997 1363.0899999999997 1463.0499999999997 C 1365.6299999999997 1463.7799999999997 1367.9499999999996 1464.7299999999998 1370.0499999999997 1465.8999999999996 C 1372.1499999999996 1467.0799999999997 1373.8399999999997 1468.6399999999996 1375.1199999999997 1470.5999999999997 C 1376.4099999999996 1472.5599999999997 1377.0499999999997 1475.0699999999997 1377.0499999999997 1478.1499999999996 C 1377.0499999999997 1481.1099999999997 1376.2399999999998 1483.8699999999997 1374.6199999999997 1486.4099999999996 C 1372.9999999999998 1488.9499999999996 1370.4999999999998 1490.9999999999995 1367.1099999999997 1492.5399999999997 C 1363.72 1494.07 1359.46 1494.84 1354.32 1494.84 z" stroke-linecap="round" />
</g>
		<g transform="matrix(1 0 0 1 -438.84 358.18)"  >
<path style="stroke: none; stroke-width: 1; stroke-dasharray: none; stroke-linecap: butt; stroke-dashoffset: 0; stroke-linejoin: miter; stroke-miterlimit: 4; fill: rgb(255,255,255); fill-rule: nonzero; opacity: 1;" vector-effect="non-scaling-stroke"  transform=" translate(-530.65, -1319.31)" d="M 468.66 1396.68 L 437.88 1396.68 L 437.88 1241.93 L 468.65999999999997 1241.93 L 530.51 1296.43 L 592.35 1241.93 L 623.4200000000001 1241.93 L 623.4200000000001 1396.68 L 592.35 1396.68 L 592.35 1283.15 L 530.51 1337.65 L 468.65999999999997 1283.15 L 468.65999999999997 1396.68 z" stroke-linecap="round" />
</g>
		<g transform="matrix(1 0 0 1 -219.42 358.18)"  >
<path style="stroke: none; stroke-width: 1; stroke-dasharray: none; stroke-linecap: butt; stroke-dashoffset: 0; stroke-linejoin: miter; stroke-miterlimit: 4; fill: rgb(255,255,255); fill-rule: nonzero; opacity: 1;" vector-effect="non-scaling-stroke"  transform=" translate(-750.07, -1319.31)" d="M 657.31 1272.99 L 657.31 1241.93 L 842.8499999999999 1241.93 L 842.8499999999999 1272.99 L 657.31 1272.99 z M 690.91 1396.68 L 657.3 1363.0800000000002 L 657.3 1303.7700000000002 L 811.77 1303.7700000000002 L 811.77 1334.8300000000002 L 688.09 1334.8300000000002 L 688.09 1350.0800000000002 L 703.62 1365.6100000000001 L 842.84 1365.6100000000001 L 842.84 1396.67 L 690.91 1396.67 z" stroke-linecap="round" />
</g>
		<g transform="matrix(1 0 0 1 0 358.18)"  >
<path style="stroke: none; stroke-width: 1; stroke-dasharray: none; stroke-linecap: butt; stroke-dashoffset: 0; stroke-linejoin: miter; stroke-miterlimit: 4; fill: rgb(255,255,255); fill-rule: nonzero; opacity: 1;" vector-effect="non-scaling-stroke"  transform=" translate(-969.5, -1319.31)" d="M 1062.26 1241.93 L 1062.26 1303.77 L 1031.2 1303.77 L 1031.2 1272.99 L 907.51 1272.99 L 907.51 1318.17 L 955.24 1365.6100000000001 L 1031.21 1365.6100000000001 L 1031.21 1334.8300000000002 L 1062.27 1334.8300000000002 L 1062.27 1396.68 L 942.25 1396.68 L 876.73 1330.88 L 876.73 1241.93 L 1062.26 1241.93 z" stroke-linecap="round" />
</g>
		<g transform="matrix(1 0 0 1 219.42 358.18)"  >
<path style="stroke: none; stroke-width: 1; stroke-dasharray: none; stroke-linecap: butt; stroke-dashoffset: 0; stroke-linejoin: miter; stroke-miterlimit: 4; fill: rgb(255,255,255); fill-rule: nonzero; opacity: 1;" vector-effect="non-scaling-stroke"  transform=" translate(-1188.92, -1319.31)" d="M 1281.69 1241.93 L 1281.69 1396.68 L 1250.6200000000001 1396.68 L 1250.6200000000001 1334.8300000000002 L 1126.93 1334.8300000000002 L 1126.93 1396.68 L 1096.15 1396.68 L 1096.15 1241.93 L 1126.93 1241.93 L 1126.93 1303.77 L 1250.6200000000001 1303.77 L 1250.6200000000001 1241.93 L 1281.69 1241.93 z" stroke-linecap="round" />
</g>
		<g transform="matrix(1 0 0 1 438.84 358.75)"  >
<path style="stroke: none; stroke-width: 1; stroke-dasharray: none; stroke-linecap: butt; stroke-dashoffset: 0; stroke-linejoin: miter; stroke-miterlimit: 4; fill: rgb(255,255,255); fill-rule: nonzero; opacity: 1;" vector-effect="non-scaling-stroke"  transform=" translate(-1408.34, -1319.87)" d="M 1501.11 1242.49 L 1429.3799999999999 1319.87 L 1501.11 1397.25 L 1459.03 1397.25 L 1408.2 1342.75 L 1357.65 1397.25 L 1315.5700000000002 1397.25 L 1387.3000000000002 1319.87 L 1315.5700000000002 1242.4899999999998 L 1357.65 1242.4899999999998 L 1408.2 1297.2799999999997 L 1459.03 1242.4899999999998 L 1501.11 1242.4899999999998 z" stroke-linecap="round" />
</g>
</g>
</g>
</svg>